<svg xmlns="http://www.w3.org/2000/svg" width="32" height="32" viewBox="0 0 32 32">
  <defs>
    <linearGradient id="fg" x1="0%" y1="100%" x2="0%" y2="0%">
      <stop offset="0%" style="stop-color:#f97316"/>
      <stop offset="50%" style="stop-color:#ef4444"/>
      <stop offset="100%" style="stop-color:#fbbf24"/>
    </linearGradient>
  </defs>
  <path d="M16 2C16 2 12 6 12 10C12 13 14 15 16 15C14 15 12 17 12 20C12 23 14 25 16 25C14 25 11 27 11 30C11 31 12 32 16 32C24 32 28 28 28 22C28 17 24 14 22 11C21 9 20 6 21 3C18 6 16 5 15 3C14.5 2 14 2 14 2C14 2 16 2 16 2Z" fill="url(#fg)"/>
</svg>
